<mxfile host="app.diagrams.net" modified="2020-08-09T08:58:27.054Z" agent="5.0 (Macintosh; Intel Mac OS X 10_15_5) AppleWebKit/537.36 (KHTML, like Gecko) Chrome/84.0.4147.105 Safari/537.36" etag="Yy1M89xFoD1JeouaLis0" version="13.6.1" type="github">
  <diagram id="4YRq6pYm-G6_jMKSerNs" name="Page-1">
    <mxGraphModel dx="946" dy="1756" grid="1" gridSize="10" guides="1" tooltips="1" connect="1" arrows="1" fold="1" page="1" pageScale="1" pageWidth="827" pageHeight="1169" math="0" shadow="0">
      <root>
        <mxCell id="0" />
        <mxCell id="1" parent="0" />
        <mxCell id="vf2n7ziz4hduwUkF9c9Y-1" value="" style="rounded=0;whiteSpace=wrap;html=1;fillColor=none;" vertex="1" parent="1">
          <mxGeometry x="250" y="-1000" width="400" height="414" as="geometry" />
        </mxCell>
        <mxCell id="vf2n7ziz4hduwUkF9c9Y-2" value="" style="rounded=0;whiteSpace=wrap;html=1;fillColor=#FFE599;" vertex="1" parent="1">
          <mxGeometry x="300" y="-974" width="40" height="40" as="geometry" />
        </mxCell>
        <mxCell id="vf2n7ziz4hduwUkF9c9Y-3" style="edgeStyle=orthogonalEdgeStyle;rounded=0;orthogonalLoop=1;jettySize=auto;html=1;exitX=0.5;exitY=1;exitDx=0;exitDy=0;entryX=0;entryY=0.75;entryDx=0;entryDy=0;curved=1;" edge="1" parent="1" source="vf2n7ziz4hduwUkF9c9Y-4" target="vf2n7ziz4hduwUkF9c9Y-14">
          <mxGeometry relative="1" as="geometry" />
        </mxCell>
        <mxCell id="vf2n7ziz4hduwUkF9c9Y-4" value="" style="rounded=0;whiteSpace=wrap;html=1;fillColor=#FFB570;" vertex="1" parent="1">
          <mxGeometry x="340" y="-974" width="40" height="40" as="geometry" />
        </mxCell>
        <mxCell id="vf2n7ziz4hduwUkF9c9Y-5" value="" style="rounded=0;whiteSpace=wrap;html=1;fillColor=#FFE599;" vertex="1" parent="1">
          <mxGeometry x="380" y="-974" width="40" height="40" as="geometry" />
        </mxCell>
        <mxCell id="vf2n7ziz4hduwUkF9c9Y-6" value="" style="rounded=0;whiteSpace=wrap;html=1;fillColor=#FFE599;" vertex="1" parent="1">
          <mxGeometry x="420" y="-974" width="40" height="40" as="geometry" />
        </mxCell>
        <mxCell id="vf2n7ziz4hduwUkF9c9Y-7" value="" style="rounded=0;whiteSpace=wrap;html=1;fillColor=#FFE599;" vertex="1" parent="1">
          <mxGeometry x="460" y="-974" width="40" height="40" as="geometry" />
        </mxCell>
        <mxCell id="vf2n7ziz4hduwUkF9c9Y-8" style="edgeStyle=orthogonalEdgeStyle;curved=1;rounded=0;orthogonalLoop=1;jettySize=auto;html=1;exitX=0.5;exitY=1;exitDx=0;exitDy=0;entryX=0;entryY=0.25;entryDx=0;entryDy=0;" edge="1" parent="1" source="vf2n7ziz4hduwUkF9c9Y-9" target="vf2n7ziz4hduwUkF9c9Y-48">
          <mxGeometry relative="1" as="geometry" />
        </mxCell>
        <mxCell id="vf2n7ziz4hduwUkF9c9Y-9" value="" style="rounded=0;whiteSpace=wrap;html=1;fillColor=#FFB570;" vertex="1" parent="1">
          <mxGeometry x="500" y="-974" width="40" height="40" as="geometry" />
        </mxCell>
        <mxCell id="vf2n7ziz4hduwUkF9c9Y-10" value="" style="rounded=0;whiteSpace=wrap;html=1;fillColor=#FFE599;" vertex="1" parent="1">
          <mxGeometry x="540" y="-974" width="40" height="40" as="geometry" />
        </mxCell>
        <mxCell id="vf2n7ziz4hduwUkF9c9Y-11" style="edgeStyle=orthogonalEdgeStyle;curved=1;rounded=0;orthogonalLoop=1;jettySize=auto;html=1;exitX=0.5;exitY=1;exitDx=0;exitDy=0;entryX=0;entryY=0.25;entryDx=0;entryDy=0;" edge="1" parent="1" source="vf2n7ziz4hduwUkF9c9Y-12" target="vf2n7ziz4hduwUkF9c9Y-28">
          <mxGeometry relative="1" as="geometry" />
        </mxCell>
        <mxCell id="vf2n7ziz4hduwUkF9c9Y-12" value="" style="rounded=0;whiteSpace=wrap;html=1;fillColor=#FFB570;" vertex="1" parent="1">
          <mxGeometry x="580" y="-974" width="40" height="40" as="geometry" />
        </mxCell>
        <mxCell id="vf2n7ziz4hduwUkF9c9Y-13" value="" style="group" vertex="1" connectable="0" parent="1">
          <mxGeometry x="300" y="-894" width="80" height="40" as="geometry" />
        </mxCell>
        <mxCell id="vf2n7ziz4hduwUkF9c9Y-14" value="key" style="rounded=0;whiteSpace=wrap;html=1;fillColor=#9AC7BF;" vertex="1" parent="vf2n7ziz4hduwUkF9c9Y-13">
          <mxGeometry width="40" height="20" as="geometry" />
        </mxCell>
        <mxCell id="vf2n7ziz4hduwUkF9c9Y-15" value="value" style="rounded=0;whiteSpace=wrap;html=1;fillColor=#9AC7BF;" vertex="1" parent="vf2n7ziz4hduwUkF9c9Y-13">
          <mxGeometry x="40" width="40" height="20" as="geometry" />
        </mxCell>
        <mxCell id="vf2n7ziz4hduwUkF9c9Y-16" value="next" style="rounded=0;whiteSpace=wrap;html=1;fillColor=#FFCCFF;" vertex="1" parent="vf2n7ziz4hduwUkF9c9Y-13">
          <mxGeometry y="20" width="80" height="20" as="geometry" />
        </mxCell>
        <mxCell id="vf2n7ziz4hduwUkF9c9Y-17" value="" style="group" vertex="1" connectable="0" parent="1">
          <mxGeometry x="300" y="-834" width="80" height="40" as="geometry" />
        </mxCell>
        <mxCell id="vf2n7ziz4hduwUkF9c9Y-18" value="key" style="rounded=0;whiteSpace=wrap;html=1;fillColor=#9AC7BF;" vertex="1" parent="vf2n7ziz4hduwUkF9c9Y-17">
          <mxGeometry width="40" height="20" as="geometry" />
        </mxCell>
        <mxCell id="vf2n7ziz4hduwUkF9c9Y-19" value="value" style="rounded=0;whiteSpace=wrap;html=1;fillColor=#9AC7BF;" vertex="1" parent="vf2n7ziz4hduwUkF9c9Y-17">
          <mxGeometry x="40" width="40" height="20" as="geometry" />
        </mxCell>
        <mxCell id="vf2n7ziz4hduwUkF9c9Y-20" value="next" style="rounded=0;whiteSpace=wrap;html=1;fillColor=#FFCCFF;" vertex="1" parent="vf2n7ziz4hduwUkF9c9Y-17">
          <mxGeometry y="20" width="80" height="20" as="geometry" />
        </mxCell>
        <mxCell id="vf2n7ziz4hduwUkF9c9Y-21" value="" style="group" vertex="1" connectable="0" parent="1">
          <mxGeometry x="300" y="-774" width="80" height="40" as="geometry" />
        </mxCell>
        <mxCell id="vf2n7ziz4hduwUkF9c9Y-22" value="key" style="rounded=0;whiteSpace=wrap;html=1;fillColor=#9AC7BF;" vertex="1" parent="vf2n7ziz4hduwUkF9c9Y-21">
          <mxGeometry width="40" height="20" as="geometry" />
        </mxCell>
        <mxCell id="vf2n7ziz4hduwUkF9c9Y-23" value="value" style="rounded=0;whiteSpace=wrap;html=1;fillColor=#9AC7BF;" vertex="1" parent="vf2n7ziz4hduwUkF9c9Y-21">
          <mxGeometry x="40" width="40" height="20" as="geometry" />
        </mxCell>
        <mxCell id="vf2n7ziz4hduwUkF9c9Y-24" value="next" style="rounded=0;whiteSpace=wrap;html=1;fillColor=#FFCCFF;" vertex="1" parent="vf2n7ziz4hduwUkF9c9Y-21">
          <mxGeometry y="20" width="80" height="20" as="geometry" />
        </mxCell>
        <mxCell id="vf2n7ziz4hduwUkF9c9Y-25" value="" style="group" vertex="1" connectable="0" parent="1">
          <mxGeometry x="534" y="-894" width="80" height="40" as="geometry" />
        </mxCell>
        <mxCell id="vf2n7ziz4hduwUkF9c9Y-26" value="key" style="rounded=0;whiteSpace=wrap;html=1;fillColor=#9AC7BF;" vertex="1" parent="vf2n7ziz4hduwUkF9c9Y-25">
          <mxGeometry width="40" height="20" as="geometry" />
        </mxCell>
        <mxCell id="vf2n7ziz4hduwUkF9c9Y-27" value="value" style="rounded=0;whiteSpace=wrap;html=1;fillColor=#9AC7BF;" vertex="1" parent="vf2n7ziz4hduwUkF9c9Y-25">
          <mxGeometry x="40" width="40" height="20" as="geometry" />
        </mxCell>
        <mxCell id="vf2n7ziz4hduwUkF9c9Y-28" value="next" style="rounded=0;whiteSpace=wrap;html=1;fillColor=#FFCCFF;" vertex="1" parent="vf2n7ziz4hduwUkF9c9Y-25">
          <mxGeometry y="20" width="80" height="20" as="geometry" />
        </mxCell>
        <mxCell id="vf2n7ziz4hduwUkF9c9Y-29" value="" style="group" vertex="1" connectable="0" parent="1">
          <mxGeometry x="534" y="-834" width="80" height="40" as="geometry" />
        </mxCell>
        <mxCell id="vf2n7ziz4hduwUkF9c9Y-30" value="key" style="rounded=0;whiteSpace=wrap;html=1;fillColor=#9AC7BF;" vertex="1" parent="vf2n7ziz4hduwUkF9c9Y-29">
          <mxGeometry width="40" height="20" as="geometry" />
        </mxCell>
        <mxCell id="vf2n7ziz4hduwUkF9c9Y-31" value="value" style="rounded=0;whiteSpace=wrap;html=1;fillColor=#9AC7BF;" vertex="1" parent="vf2n7ziz4hduwUkF9c9Y-29">
          <mxGeometry x="40" width="40" height="20" as="geometry" />
        </mxCell>
        <mxCell id="vf2n7ziz4hduwUkF9c9Y-32" value="next" style="rounded=0;whiteSpace=wrap;html=1;fillColor=#FFCCFF;" vertex="1" parent="vf2n7ziz4hduwUkF9c9Y-29">
          <mxGeometry y="20" width="80" height="20" as="geometry" />
        </mxCell>
        <mxCell id="vf2n7ziz4hduwUkF9c9Y-33" value="" style="group" vertex="1" connectable="0" parent="1">
          <mxGeometry x="534" y="-774" width="80" height="40" as="geometry" />
        </mxCell>
        <mxCell id="vf2n7ziz4hduwUkF9c9Y-34" value="key" style="rounded=0;whiteSpace=wrap;html=1;fillColor=#9AC7BF;" vertex="1" parent="vf2n7ziz4hduwUkF9c9Y-33">
          <mxGeometry width="40" height="20" as="geometry" />
        </mxCell>
        <mxCell id="vf2n7ziz4hduwUkF9c9Y-35" value="value" style="rounded=0;whiteSpace=wrap;html=1;fillColor=#9AC7BF;" vertex="1" parent="vf2n7ziz4hduwUkF9c9Y-33">
          <mxGeometry x="40" width="40" height="20" as="geometry" />
        </mxCell>
        <mxCell id="vf2n7ziz4hduwUkF9c9Y-36" value="next" style="rounded=0;whiteSpace=wrap;html=1;fillColor=#FFCCFF;" vertex="1" parent="vf2n7ziz4hduwUkF9c9Y-33">
          <mxGeometry y="20" width="80" height="20" as="geometry" />
        </mxCell>
        <mxCell id="vf2n7ziz4hduwUkF9c9Y-37" value="" style="group" vertex="1" connectable="0" parent="1">
          <mxGeometry x="534" y="-714" width="80" height="40" as="geometry" />
        </mxCell>
        <mxCell id="vf2n7ziz4hduwUkF9c9Y-38" value="key" style="rounded=0;whiteSpace=wrap;html=1;fillColor=#9AC7BF;" vertex="1" parent="vf2n7ziz4hduwUkF9c9Y-37">
          <mxGeometry width="40" height="20" as="geometry" />
        </mxCell>
        <mxCell id="vf2n7ziz4hduwUkF9c9Y-39" value="value" style="rounded=0;whiteSpace=wrap;html=1;fillColor=#9AC7BF;" vertex="1" parent="vf2n7ziz4hduwUkF9c9Y-37">
          <mxGeometry x="40" width="40" height="20" as="geometry" />
        </mxCell>
        <mxCell id="vf2n7ziz4hduwUkF9c9Y-40" value="next" style="rounded=0;whiteSpace=wrap;html=1;fillColor=#FFCCFF;" vertex="1" parent="vf2n7ziz4hduwUkF9c9Y-37">
          <mxGeometry y="20" width="80" height="20" as="geometry" />
        </mxCell>
        <mxCell id="vf2n7ziz4hduwUkF9c9Y-41" value="" style="group" vertex="1" connectable="0" parent="1">
          <mxGeometry x="534" y="-654" width="80" height="40" as="geometry" />
        </mxCell>
        <mxCell id="vf2n7ziz4hduwUkF9c9Y-42" value="key" style="rounded=0;whiteSpace=wrap;html=1;fillColor=#9AC7BF;" vertex="1" parent="vf2n7ziz4hduwUkF9c9Y-41">
          <mxGeometry width="40" height="20" as="geometry" />
        </mxCell>
        <mxCell id="vf2n7ziz4hduwUkF9c9Y-43" value="value" style="rounded=0;whiteSpace=wrap;html=1;fillColor=#9AC7BF;" vertex="1" parent="vf2n7ziz4hduwUkF9c9Y-41">
          <mxGeometry x="40" width="40" height="20" as="geometry" />
        </mxCell>
        <mxCell id="vf2n7ziz4hduwUkF9c9Y-44" value="next" style="rounded=0;whiteSpace=wrap;html=1;fillColor=#FFCCFF;" vertex="1" parent="vf2n7ziz4hduwUkF9c9Y-41">
          <mxGeometry y="20" width="80" height="20" as="geometry" />
        </mxCell>
        <mxCell id="vf2n7ziz4hduwUkF9c9Y-45" value="" style="group" vertex="1" connectable="0" parent="1">
          <mxGeometry x="420" y="-894" width="80" height="40" as="geometry" />
        </mxCell>
        <mxCell id="vf2n7ziz4hduwUkF9c9Y-46" value="key" style="rounded=0;whiteSpace=wrap;html=1;fillColor=#9AC7BF;" vertex="1" parent="vf2n7ziz4hduwUkF9c9Y-45">
          <mxGeometry width="40" height="20" as="geometry" />
        </mxCell>
        <mxCell id="vf2n7ziz4hduwUkF9c9Y-47" value="value" style="rounded=0;whiteSpace=wrap;html=1;fillColor=#9AC7BF;" vertex="1" parent="vf2n7ziz4hduwUkF9c9Y-45">
          <mxGeometry x="40" width="40" height="20" as="geometry" />
        </mxCell>
        <mxCell id="vf2n7ziz4hduwUkF9c9Y-48" value="next" style="rounded=0;whiteSpace=wrap;html=1;fillColor=#FFCCFF;" vertex="1" parent="vf2n7ziz4hduwUkF9c9Y-45">
          <mxGeometry y="20" width="80" height="20" as="geometry" />
        </mxCell>
        <mxCell id="vf2n7ziz4hduwUkF9c9Y-49" style="edgeStyle=orthogonalEdgeStyle;curved=1;rounded=0;orthogonalLoop=1;jettySize=auto;html=1;exitX=0;exitY=0.5;exitDx=0;exitDy=0;entryX=0;entryY=0.75;entryDx=0;entryDy=0;" edge="1" parent="1" source="vf2n7ziz4hduwUkF9c9Y-20" target="vf2n7ziz4hduwUkF9c9Y-22">
          <mxGeometry relative="1" as="geometry" />
        </mxCell>
        <mxCell id="vf2n7ziz4hduwUkF9c9Y-50" style="edgeStyle=orthogonalEdgeStyle;curved=1;rounded=0;orthogonalLoop=1;jettySize=auto;html=1;exitX=0;exitY=0.5;exitDx=0;exitDy=0;entryX=0;entryY=0.25;entryDx=0;entryDy=0;" edge="1" parent="1" source="vf2n7ziz4hduwUkF9c9Y-16" target="vf2n7ziz4hduwUkF9c9Y-20">
          <mxGeometry relative="1" as="geometry" />
        </mxCell>
        <mxCell id="vf2n7ziz4hduwUkF9c9Y-51" style="edgeStyle=orthogonalEdgeStyle;curved=1;rounded=0;orthogonalLoop=1;jettySize=auto;html=1;exitX=0;exitY=0.5;exitDx=0;exitDy=0;entryX=0;entryY=0.25;entryDx=0;entryDy=0;" edge="1" parent="1" source="vf2n7ziz4hduwUkF9c9Y-28" target="vf2n7ziz4hduwUkF9c9Y-32">
          <mxGeometry relative="1" as="geometry" />
        </mxCell>
        <mxCell id="vf2n7ziz4hduwUkF9c9Y-52" style="edgeStyle=orthogonalEdgeStyle;curved=1;rounded=0;orthogonalLoop=1;jettySize=auto;html=1;exitX=0;exitY=0.75;exitDx=0;exitDy=0;entryX=0;entryY=0.25;entryDx=0;entryDy=0;" edge="1" parent="1" source="vf2n7ziz4hduwUkF9c9Y-32" target="vf2n7ziz4hduwUkF9c9Y-36">
          <mxGeometry relative="1" as="geometry" />
        </mxCell>
        <mxCell id="vf2n7ziz4hduwUkF9c9Y-53" style="edgeStyle=orthogonalEdgeStyle;curved=1;rounded=0;orthogonalLoop=1;jettySize=auto;html=1;exitX=0;exitY=0.75;exitDx=0;exitDy=0;entryX=0;entryY=0.25;entryDx=0;entryDy=0;" edge="1" parent="1" source="vf2n7ziz4hduwUkF9c9Y-36" target="vf2n7ziz4hduwUkF9c9Y-40">
          <mxGeometry relative="1" as="geometry" />
        </mxCell>
        <mxCell id="vf2n7ziz4hduwUkF9c9Y-54" style="edgeStyle=orthogonalEdgeStyle;curved=1;rounded=0;orthogonalLoop=1;jettySize=auto;html=1;exitX=0;exitY=0.75;exitDx=0;exitDy=0;entryX=0;entryY=0.25;entryDx=0;entryDy=0;" edge="1" parent="1" source="vf2n7ziz4hduwUkF9c9Y-40" target="vf2n7ziz4hduwUkF9c9Y-44">
          <mxGeometry relative="1" as="geometry" />
        </mxCell>
        <mxCell id="vf2n7ziz4hduwUkF9c9Y-55" style="edgeStyle=orthogonalEdgeStyle;curved=1;rounded=0;orthogonalLoop=1;jettySize=auto;html=1;exitX=0.5;exitY=1;exitDx=0;exitDy=0;entryX=0;entryY=0.5;entryDx=0;entryDy=0;" edge="1" parent="1" source="vf2n7ziz4hduwUkF9c9Y-56" target="vf2n7ziz4hduwUkF9c9Y-2">
          <mxGeometry relative="1" as="geometry" />
        </mxCell>
        <mxCell id="vf2n7ziz4hduwUkF9c9Y-56" value="ht[0]" style="rounded=0;whiteSpace=wrap;html=1;fillColor=#B9E0A5;" vertex="1" parent="1">
          <mxGeometry x="360" y="-1114" width="40" height="40" as="geometry" />
        </mxCell>
        <mxCell id="vf2n7ziz4hduwUkF9c9Y-57" value="ht[1]" style="rounded=0;whiteSpace=wrap;html=1;fillColor=#FFF4C3;" vertex="1" parent="1">
          <mxGeometry x="400" y="-1114" width="40" height="40" as="geometry" />
        </mxCell>
        <mxCell id="vf2n7ziz4hduwUkF9c9Y-58" value="&lt;font style=&quot;font-size: 18px&quot;&gt;dict&lt;/font&gt;" style="text;html=1;strokeColor=none;fillColor=none;align=center;verticalAlign=middle;whiteSpace=wrap;rounded=0;" vertex="1" parent="1">
          <mxGeometry x="140" y="-1104" width="40" height="20" as="geometry" />
        </mxCell>
        <mxCell id="vf2n7ziz4hduwUkF9c9Y-59" value="&lt;font style=&quot;font-size: 18px&quot;&gt;hashtable&lt;/font&gt;" style="text;html=1;strokeColor=none;fillColor=none;align=center;verticalAlign=middle;whiteSpace=wrap;rounded=0;" vertex="1" parent="1">
          <mxGeometry x="150" y="-854" width="40" height="20" as="geometry" />
        </mxCell>
        <mxCell id="vf2n7ziz4hduwUkF9c9Y-60" style="edgeStyle=orthogonalEdgeStyle;rounded=0;orthogonalLoop=1;jettySize=auto;html=1;exitX=0.5;exitY=1;exitDx=0;exitDy=0;curved=1;" edge="1" parent="1" source="vf2n7ziz4hduwUkF9c9Y-61" target="vf2n7ziz4hduwUkF9c9Y-64">
          <mxGeometry relative="1" as="geometry" />
        </mxCell>
        <mxCell id="vf2n7ziz4hduwUkF9c9Y-61" value="ht[0]" style="rounded=0;whiteSpace=wrap;html=1;fillColor=#B9E0A5;" vertex="1" parent="1">
          <mxGeometry x="790" y="-1114" width="40" height="40" as="geometry" />
        </mxCell>
        <mxCell id="vf2n7ziz4hduwUkF9c9Y-62" style="edgeStyle=orthogonalEdgeStyle;curved=1;rounded=0;orthogonalLoop=1;jettySize=auto;html=1;exitX=0.5;exitY=1;exitDx=0;exitDy=0;" edge="1" parent="1" source="vf2n7ziz4hduwUkF9c9Y-63" target="vf2n7ziz4hduwUkF9c9Y-65">
          <mxGeometry relative="1" as="geometry" />
        </mxCell>
        <mxCell id="vf2n7ziz4hduwUkF9c9Y-63" value="ht[1]" style="rounded=0;whiteSpace=wrap;html=1;fillColor=#FFF4C3;" vertex="1" parent="1">
          <mxGeometry x="830" y="-1114" width="40" height="40" as="geometry" />
        </mxCell>
        <mxCell id="vf2n7ziz4hduwUkF9c9Y-64" value="hashtable" style="rounded=0;whiteSpace=wrap;html=1;fillColor=#E1D5E7;" vertex="1" parent="1">
          <mxGeometry x="720" y="-1000" width="90" height="50" as="geometry" />
        </mxCell>
        <mxCell id="vf2n7ziz4hduwUkF9c9Y-65" value="hashtable" style="rounded=0;whiteSpace=wrap;html=1;fillColor=#C3ABD0;" vertex="1" parent="1">
          <mxGeometry x="850" y="-1000" width="90" height="50" as="geometry" />
        </mxCell>
        <mxCell id="vf2n7ziz4hduwUkF9c9Y-66" value="" style="html=1;shadow=0;dashed=0;align=center;verticalAlign=middle;shape=mxgraph.arrows2.arrow;dy=0.6;dx=40;notch=0;fillColor=none;" vertex="1" parent="1">
          <mxGeometry x="580" y="-1114" width="90" height="34" as="geometry" />
        </mxCell>
        <mxCell id="vf2n7ziz4hduwUkF9c9Y-67" value="rehash" style="text;html=1;strokeColor=none;fillColor=none;align=center;verticalAlign=middle;whiteSpace=wrap;rounded=0;" vertex="1" parent="1">
          <mxGeometry x="600" y="-1074" width="40" height="20" as="geometry" />
        </mxCell>
      </root>
    </mxGraphModel>
  </diagram>
</mxfile>
